<?xml version="1.0" ?><svg id="Icons" style="enable-background:new 0 0 32 32;" version="1.1" viewBox="0 0 32 32" xml:space="preserve" xmlns="http://www.w3.org/2000/svg" xmlns:xlink="http://www.w3.org/1999/xlink"><style type="text/css">
	.st0{fill:none;stroke:#000000;stroke-width:1;stroke-linecap:round;stroke-linejoin:round;stroke-miterlimit:10;}
	.st1{fill:none;stroke:#000000;stroke-width:1;stroke-linejoin:round;stroke-miterlimit:10;}
</style><path class="st0" d="M16,23.6c1.1,0,2.1,0.2,2.9,0.4c0-0.1,0.1-0.3,0.1-0.4c0-1.4-1.3-2.6-3-2.6s-3,1.1-3,2.6c0,0.2,0,0.3,0.1,0.4  C13.9,23.7,14.9,23.6,16,23.6z"/><path class="st0" d="M13.7,19c-0.3-0.6-1-1-1.7-1s-1.4,0.4-1.7,1"/><path class="st0" d="M21.7,19c-0.3-0.6-1-1-1.7-1s-1.4,0.4-1.7,1"/><path class="st0" d="M17.9,3.3c2.3,1.9,3.1,5.2,1.7,7.9c-1.3,2.5-4.4,3.4-6.8,2.1c-2-1-2.7-3.5-1.7-5.5c0.8-1.6,2.8-2.2,4.4-1.4  c1.3,0.7,1.8,2.2,1.1,3.5"/><path class="st0" d="M11.9,6.8c-3.2,1.3-5.6,4-6.5,7.3C4,14.3,3,15.5,3,17c0,1.5,1,2.7,2.4,2.9C6.7,24.6,10.9,28,16,28  s9.3-3.4,10.6-8.1C28,19.7,29,18.5,29,17c0-1.5-1-2.7-2.4-2.9c-0.9-3.3-3.3-6-6.5-7.3"/></svg>