<?xml version="1.0" ?><svg enable-background="new 0 0 200 200" id="Layer_1" version="1.1" viewBox="0 0 200 200" xml:space="preserve" xmlns="http://www.w3.org/2000/svg" xmlns:xlink="http://www.w3.org/1999/xlink"><g><path d="M97.604,64.118c0.662,0.708,1.588,1.109,2.558,1.109c0.969,0,1.895-0.402,2.556-1.11l17.709-18.944   l2.513-2.676c6.113-6.536,6.114-17.181,0-23.731c-3.035-3.246-7.09-5.033-11.418-5.033c-4.3,0-8.331,1.765-11.365,4.977   c-3.021-3.21-7.053-4.977-11.365-4.977c-4.32,0-8.372,1.787-11.411,5.036c-6.112,6.548-6.111,17.192,0.002,23.729L97.604,64.118z    M82.493,23.547c1.698-1.815,3.935-2.815,6.297-2.815c2.375,0,4.613,0.998,6.306,2.815l2.509,2.682   c0.662,0.708,1.587,1.109,2.556,1.109c0.001,0,0.003,0,0.004,0c0.97-0.001,1.896-0.405,2.557-1.114l2.493-2.676   c1.698-1.815,3.938-2.815,6.307-2.815s4.607,1,6.303,2.812c3.651,3.912,3.652,10.269,0.007,14.166l-17.671,18.892L82.494,37.715   C78.844,33.813,78.845,27.456,82.493,23.547z" fill="#1D1D1B"/><path d="M134.789,114.023h-5.197v-4.143c3.274-1.284,5.603-4.468,5.603-8.192v-9.142c0-1.933-1.567-3.5-3.5-3.5   h-10.908c-1.933,0-3.5,1.567-3.5,3.5v9.422c0,3.561,2.197,6.615,5.306,7.887v4.167h-19.315v-6.684   c4.49-1.476,7.743-5.701,7.743-10.678V78.313c0-1.933-1.567-3.5-3.5-3.5s-3.5,1.567-3.5,3.5v18.349c0,2.34-1.903,4.243-4.243,4.243   s-4.243-1.903-4.243-4.243V78.313c0-1.933-1.567-3.5-3.5-3.5s-3.5,1.567-3.5,3.5v18.349c0,4.977,3.254,9.202,7.743,10.678v6.684   h-18.87v-4.143c3.274-1.284,5.603-4.468,5.603-8.192v-9.142c0-1.933-1.567-3.5-3.5-3.5H68.601c-1.933,0-3.5,1.567-3.5,3.5v9.422   c0,3.561,2.197,6.615,5.306,7.887v4.167h-4.9c-1.933,0-3.5,1.567-3.5,3.5v32.413c0,0.926,0.367,1.814,1.021,2.47   c1.977,1.984,4.609,3.079,7.413,3.082c0.004,0,0.008,0,0.012,0c2.806,0,5.443-1.092,7.43-3.078c1.322-1.32,3.609-1.33,4.947,0.01   c1.993,1.977,4.628,3.065,7.42,3.065c0.02,0,0.04-0.004,0.061-0.004v13.677h-7.85c-1.933,0-3.5,1.567-3.5,3.5v11.203   c0,1.933,1.567,3.5,3.5,3.5h35.377c1.933,0,3.5-1.567,3.5-3.5v-11.203c0-1.933-1.567-3.5-3.5-3.5h-7.85v-13.676   c0.017,0,0.033,0.003,0.05,0.003c2.808,0,5.446-1.092,7.431-3.075c1.312-1.312,3.608-1.331,4.958,0.009   c1.992,1.977,4.624,3.066,7.41,3.066c2.809,0,5.447-1.092,7.43-3.075c0.656-0.657,1.024-1.546,1.024-2.475v-32.413   C138.289,115.59,136.722,114.023,134.789,114.023z M124.286,96.047h3.908v5.642c0,0.994-0.809,1.803-1.803,1.803h-0.583   c-0.84,0-1.522-0.683-1.522-1.522V96.047z M72.101,96.047h3.908v5.642c0,0.994-0.809,1.803-1.803,1.803h-0.583   c-0.84,0-1.522-0.683-1.522-1.522V96.047z M114.336,176.159v4.203H85.959v-4.203h7.825c0.008,0,0.016,0.002,0.024,0.002h12.678   c0.008,0,0.016-0.002,0.024-0.002H114.336z M97.309,169.159v-16.406c0.122-0.11,0.241-0.225,0.358-0.342   c1.314-1.313,3.618-1.322,4.95,0c0.12,0.12,0.243,0.237,0.369,0.351v16.396H97.309z M131.289,148.173   c-1.267,0.577-2.89,0.313-3.934-0.722c-1.992-1.976-4.624-3.064-7.41-3.064c-2.809,0-5.447,1.092-7.429,3.074   c-1.097,1.096-2.819,1.388-4.284,0.509c-0.242-0.139-0.472-0.315-0.675-0.519c-1.245-1.235-2.74-2.124-4.366-2.616   c-0.976-0.296-1.999-0.449-3.044-0.449c-2.808,0-5.446,1.092-7.43,3.074c-0.206,0.207-0.427,0.377-0.714,0.544   c-1.304,0.784-3.129,0.554-4.235-0.543c-1.982-1.983-4.617-3.075-7.42-3.075c-2.802,0-5.437,1.092-7.418,3.074   c-0.663,0.663-1.543,1.027-2.479,1.027c-0.001,0-0.003,0-0.004,0c-0.506,0-0.995-0.108-1.441-0.311v-27.154h4.158   c0.24,0.052,0.487,0.083,0.742,0.083s0.502-0.031,0.742-0.083h50.702c0.24,0.052,0.487,0.083,0.742,0.083s0.502-0.031,0.742-0.083   h4.455V148.173z" fill="#1D1D1B"/><path d="M183.537,97.81c-1.933,0-3.5,1.567-3.5,3.5v35.123h-34.044c-1.933,0-3.5,1.567-3.5,3.5v10.614v33.315   c0,1.933,1.567,3.5,3.5,3.5s3.5-1.567,3.5-3.5v-29.815h23.135c1.933,0,3.5-1.567,3.5-3.5s-1.567-3.5-3.5-3.5h-23.135v-3.614h30.544   v40.43c0,1.933,1.567,3.5,3.5,3.5s3.5-1.567,3.5-3.5V101.31C187.037,99.376,185.47,97.81,183.537,97.81z" fill="#1D1D1B"/><path d="M54.007,136.432H19.963V101.31c0-1.933-1.567-3.5-3.5-3.5s-3.5,1.567-3.5,3.5v82.552   c0,1.933,1.567,3.5,3.5,3.5s3.5-1.567,3.5-3.5v-40.43h30.544v3.614H27.512c-1.933,0-3.5,1.567-3.5,3.5s1.567,3.5,3.5,3.5h22.995   v29.815c0,1.933,1.567,3.5,3.5,3.5s3.5-1.567,3.5-3.5v-33.315v-10.614C57.507,137.999,55.939,136.432,54.007,136.432z" fill="#1D1D1B"/></g></svg>