<?xml version="1.0" ?><svg data-name="Layer 1" id="Layer_1" viewBox="0 0 512 512" xmlns="http://www.w3.org/2000/svg"><path d="M447.07,137.38c-82.71-14.84-121.59,14.22-136.4,30.68-14.8-16.46-53.67-45.53-136.42-30.68a8.5,8.5,0,0,0-7,8.37V334a8.51,8.51,0,0,0,10,8.37c97.26-17.46,124.8,30.11,125.89,32.09.08.14.24.2.32.34a8.35,8.35,0,0,0,2.68,2.8,6.16,6.16,0,0,0,.74.33,8.84,8.84,0,0,0,1.66.74,8.66,8.66,0,0,0,1.89.24c.08,0,.14.06.22.06a8.14,8.14,0,0,0,2.06-.26,8,8,0,0,0,2-.89,2.72,2.72,0,0,1,.25-.11,8.44,8.44,0,0,0,2.83-2.9c.07-.12.22-.17.29-.3,1.12-2,28.74-49.63,125.92-32.14a8.36,8.36,0,0,0,7-1.85,8.48,8.48,0,0,0,3.05-6.52V145.75A8.5,8.5,0,0,0,447.07,137.38ZM217.42,321.56a234.12,234.12,0,0,0-33.15,2.49V153c83-12.7,112.32,23.35,117.88,31.65V348.13C287.36,335.7,261,321.56,217.42,321.56Zm219.63,2.49c-63.84-9.15-99.66,8.77-117.88,24.08V184.62c5.66-8.4,35.05-44.33,117.88-31.66Z"/><path d="M387.94,402H75V90.59a66.75,66.75,0,0,1,66.67-66.67H312.76a66.75,66.75,0,0,1,66.68,66.67v12.3a8.51,8.51,0,1,0,17,0V90.59A83.78,83.78,0,0,0,312.76,6.91H141.62A83.79,83.79,0,0,0,57.93,90.59V421.41a83.79,83.79,0,0,0,83.69,83.68H312.76a83.78,83.78,0,0,0,83.69-83.68v-11A8.5,8.5,0,0,0,387.94,402Zm-8.5,19.46a66.75,66.75,0,0,1-66.68,66.67H141.62A66.75,66.75,0,0,1,75,421.41V419H379.44Z"/><path d="M201.81,453.61h50.77a8.51,8.51,0,0,0,0-17H201.81a8.51,8.51,0,1,0,0,17Z"/></svg>