<?xml version="1.0" ?><svg viewBox="0 0 512 512" xmlns="http://www.w3.org/2000/svg"><g id="Healthy_lifestyle"><path d="M475.1383,50.6147a111.5573,111.5573,0,0,0-76.3335-38.2876C337.2965,7.731,283.3253,54.0024,278.5084,115.4712a111.9131,111.9131,0,0,0,53.12,104.4521,4.0764,4.0764,0,0,1,1.9663,3.7281l-1.8906,28.8974a8.8843,8.8843,0,0,0,4.9228,8.628,9.0657,9.0657,0,0,0,4.1011.9946,8.9311,8.9311,0,0,0,5.7661-2.1377L374.2672,236.68a4.05,4.05,0,0,1,3.0718-.9131c1.9131.2251,3.8491.4023,5.7544.5268A112.26,112.26,0,0,0,475.1383,50.6147ZM331.9645,104.2388v-8.753h-8.7524a5.25,5.25,0,0,1,0-10.5h8.7524V76.2334a5.25,5.25,0,0,1,10.5,0v8.7524h8.7529a5.25,5.25,0,0,1,0,10.5h-8.7529v8.753a5.25,5.25,0,1,1-10.5,0Zm116.9609,73.1089A31.9368,31.9368,0,0,1,424.4147,188.77h-84.47a5.25,5.25,0,0,1,0-10.5h84.47a21.5106,21.5106,0,0,0,21.1875-25.2236l-12.9805-74.063a20.8085,20.8085,0,0,0-20.53-17.2441H394.4494a15.2256,15.2256,0,0,0-10.1861,4.4282,8.2539,8.2539,0,0,0-2.7109,5.5825l.249,15.6641c.021,1.3344.03,1.8867,4.4229,4.9062l7.6206,4.6934a13.281,13.281,0,0,0,6.9707,1.9751h.33c.4732-3.2139.9952-5.7876,1.3526-7.3936a5.316,5.316,0,0,0-.1338-2.78L401.1691,85.1h-5.6055a5.25,5.25,0,0,1,0-10.5h6.7905a8.8475,8.8475,0,0,1,8.4468,6.1543l1.5586,4.8433a15.8206,15.8206,0,0,1,.3882,8.2817c-1.7241,7.7344-6.3755,34.5366,6.14,54.7139a5.2506,5.2506,0,0,1-4.4566,8.018h-.0015a5.222,5.222,0,0,1-4.4648-2.4829,62.5164,62.5164,0,0,1-6.5884-14.6758c-32.83-19.69-59.1782-.5937-60.2842.229a12.3516,12.3516,0,0,0-1.2587,1.1226,5.25,5.25,0,1,1-7.4122-7.4365,22.4885,22.4885,0,0,1,2.4029-2.11,62.2376,62.2376,0,0,1,21.9355-9.4961,65.5735,65.5735,0,0,1,41.8638,4.42c-.3521-2.9189-.5664-5.9135-.6372-8.9087-.06-2.5463-.021-5.1713.1152-7.8061a23.7969,23.7969,0,0,1-11.7637-3.5132l-7.7358-4.7646c-.0732-.0454-.1455-.0918-.2158-.1407-4.2026-2.88-8.9673-6.1455-9.0835-13.4677l-.2495-15.731a18.59,18.59,0,0,1,5.7739-13.0947,25.87,25.87,0,0,1,17.6226-7.5156h17.6425a31.2909,31.2909,0,0,1,30.8716,25.9316l12.9805,74.063A31.9343,31.9343,0,0,1,448.9254,177.3477Z"/><circle cx="171.3092" cy="380.307" r="6.1265"/><circle cx="219.8502" cy="382.141" r="6.1265"/><circle cx="194.6901" cy="369.8881" r="6.1265"/><path d="M399.611,297.229H385.154a6,6,0,0,0,0,12h14.457a3.0621,3.0621,0,0,1,3.0411,3.4243l-6.2115,52.2056c-12.5864-.926-20.9751.9165-41.0171,6.9761-8.6767,2.6235-17.97,2.071-25.6275.6484l-9.247-63.2544h38.0415a6,6,0,0,0,0-12H318.7946l-2.6309-17.9961a29.7919,29.7919,0,0,0-29.3154-25.3413H263.6452a6,6,0,0,0,0,12h23.2031a17.7266,17.7266,0,0,1,17.4424,15.0776l2.3769,16.26h-14.25a15.0625,15.0625,0,0,0-14.9717,16.7065l9.543,86.9048H267.7843a5.9856,5.9856,0,0,0-.2768-1.8051c-.6621-2.1075-16.7617-51.71-63.7735-59.9722-.5923-.1041-1.1621-.1818-1.7431-.2725A69.4229,69.4229,0,0,0,223.84,309.2773c3.0605-7.8457,1.2725-13.0781-.7666-16.0859-3.7539-5.5376-11.4785-8.3887-22.959-8.4731a3.7666,3.7666,0,0,1-3.5068-4.9712c10.4258-30.2285,2.3437-41.3418-6.2715-45.3418-12.501-5.8067-28.3682,2.456-45.8779,23.8935a3.7355,3.7355,0,0,1-2.7422,1.3784,3.6082,3.6082,0,0,1-2.7754-1.0708c-13.833-13.9794-23.3057-13.0507-28.82-9.8085-11.9683,7.04-16.6768,29.8225-17.9151,37.23a61.7639,61.7639,0,0,0-6.09,7.3526,2.284,2.284,0,0,1-1.8623.9741,2.3928,2.3928,0,0,1-2.0342-1.0054,73.9864,73.9864,0,0,0-21.916-19.4043c-8.96-5.06-17.3994-6.68-23.752-4.5586-9.6435,3.2144-11.5263,15.0367-5.5966,35.1387a2.4111,2.4111,0,0,1-1.9414,3.0786c-12.8243,2.03-20.3956,11.2529-20.7725,25.3052-.3623,13.499,11.4121,26.95,34.998,39.979a2.2609,2.2609,0,0,1,1.212,2.0239,2.446,2.446,0,0,1-1.2666,2.1792,26.8362,26.8362,0,0,0-12.4766,15.7466c-2.6719,8.4919,3.2207,13.8538,8.7226,16.88v30.0462a6,6,0,0,0,6,6,44.0958,44.0958,0,0,1,42.4239,32.08c.3174,1.1406.6191,2.3286.8965,3.5288a22.8037,22.8037,0,0,0,22.3515,17.7265H251.1081a22.8057,22.8057,0,0,0,22.3525-17.728c.2725-1.1812.5742-2.3682.8965-3.5278a43.75,43.75,0,0,1,18.352-24.9173l3.4624,31.532a14.6812,14.6812,0,0,0,14.6133,13.0962h68.8975A14.7063,14.7063,0,0,0,394.28,484.59l20.2881-170.519A15.0622,15.0622,0,0,0,399.611,297.229ZM68.152,338.2275c.3013.1795,28.9355,17.6459,46.3716,62.6128H48.526a6.0308,6.0308,0,0,0-.9853-.5244c-4.8574-2.0151-5.4463-3.5669-5.4492-3.5737a1.019,1.019,0,0,1,.0625-.3032,14.9882,14.9882,0,0,1,7.0087-8.9439,14.5173,14.5173,0,0,0,7.2862-12.6846,14.1715,14.1715,0,0,0-7.4082-12.4267C30.5114,352.1484,20.0133,341.5225,20.236,333.231c.2256-8.3965,3.5107-12.6446,10.6523-13.7749a14.4123,14.4123,0,0,0,11.5752-18.3267c-4.1953-14.2222-2.8935-19.61-2.1181-20.3594,6.37-2.1186,21.8769,6.0772,32.3125,19.8325A14.5751,14.5751,0,0,0,84.22,306.355c.0673,0,.1347-.0005.2011-.0015A14.1953,14.1953,0,0,0,95.8756,300.36a46.1838,46.1838,0,0,1,5.9248-6.9546c.0879-.0776.1719-.159.2549-.2416,2.919-2.6568,4.8975-3.2949,5.8291-3.4352a3.5655,3.5655,0,0,1,2.919.8818c4.8027,3.6592,7.9785,14.523,8.7119,29.8052a14.1583,14.1583,0,0,0,7.1084,11.6485,14.5457,14.5457,0,0,0,1.5327.7573l.0083.0044.0029.0011c.1011.0432.2032.0807.3052.1216q.2718.1085.5474.1893a14.47,14.47,0,0,0,11.5517-.8c1.5781-.8194,4.5225-2.0821,6.502-1.32,1.9355.7422,3.3066,3.4668,4.1172,5.6211,3.8418,10.2265-5.3282,34.66-23.9507,63.9458-18.6773-51.7933-51.5386-71.83-52.9575-72.6729a6,6,0,1,0-6.1309,10.3154ZM141.2169,400.84c9.7671-16.0523,15.6988-28.82,19.0474-38.9635a5.9953,5.9953,0,0,0,.8106-.98c.2944-.42,5.2045-7.1856,17.437-9.9571.1606-.03.32-.0673.48-.11,5.837-1.2516,13.294-1.5937,22.6661.0528,35.15,6.1773,50.5659,41.5556,53.7578,49.958ZM295.258,366.21l-5.8843-53.5835a3.0621,3.0621,0,0,1,3.0439-3.397H308.422l8.753,59.8738c-.6919-.2442-1.2955-.468-1.82-.6687A32.39,32.39,0,0,0,301.2,365.311,23.882,23.882,0,0,0,295.258,366.21Zm87.106,116.9634a2.7017,2.7017,0,0,1-2.6817,2.3813H310.7848a2.6985,2.6985,0,0,1-2.6855-2.4058l-3.9034-35.5466a43.9687,43.9687,0,0,1,12.584-1.8381h.1719a6,6,0,0,0,6-6V406.84a6,6,0,0,0-6-6H299.0607L296.61,378.52a11.1107,11.1107,0,0,1,4.9126-1.2128,18.7433,18.7433,0,0,1,6.8008,1.2177c.3291.1476,1.2021.5289,2.5215,1.0421,4.1172,1.9125,9.1382,5.28,15.1074,11.0146,16.127,15.4942,33.5157,19.6885,47.6143,19.6885a74.9575,74.9575,0,0,0,17.7295-2.167Z"/></g></svg>