<?xml version="1.0" encoding="utf-8"?>
<svg id="currentIllo" data-name="Layer 1" width="793.56289" height="662.46368" viewBox="0 0 793.56289 662.46368" class="injected-svg DownloadModal__ImageFile-sc-p17csy-5 iIfSkb grid_media" xmlns="http://www.w3.org/2000/svg">
  <rect x="167.355" y="277.158" width="630.166" height="31.983" transform="matrix(0.860303, -0.509782, 0.509782, 0.860303, -276.222076, 287.500885)" fill="#f2f2f2"/>
  <rect x="285.186" y="304.091" width="630.166" height="31.983" transform="matrix(0.860303, -0.509782, 0.509782, 0.860303, -273.491364, 351.331665)" fill="#f2f2f2"/>
  <rect x="389.551" y="333.549" width="630.166" height="31.983" transform="matrix(0.860303, -0.509782, 0.509782, 0.860303, -273.929016, 408.650208)" fill="#f2f2f2"/>
  <circle cx="362.164" cy="326.223" r="169.736" fill="#fff"/>
  <path d="M 191.166 326.223 C 191.166 231.934 267.875 155.225 362.164 155.225 C 456.453 155.225 533.162 231.934 533.162 326.223 C 533.162 420.511 456.453 497.221 362.164 497.221 C 267.875 497.221 191.166 420.511 191.166 326.223 Z M 193.691 326.223 C 193.691 419.119 269.268 494.696 362.164 494.696 C 455.061 494.696 530.637 419.119 530.637 326.223 C 530.637 233.327 455.061 157.75 362.164 157.75 C 269.268 157.75 193.691 233.327 193.691 326.223 Z" fill="#3f3d56"/>
  <path d="M 331.907 326.961 L 331.907 326.961 C 331.907 303.669 357.121 289.111 377.293 300.757 C 397.464 312.403 397.464 341.518 377.293 353.164 C 372.693 355.82 367.475 357.218 362.164 357.218 C 345.454 357.218 331.907 343.671 331.907 326.961 Z M 362.164 298.179 C 346.276 298.197 333.401 311.073 333.383 326.961 L 333.383 326.961 C 333.383 349.117 357.367 362.964 376.555 351.886 C 395.742 340.808 395.742 313.113 376.555 302.035 C 372.18 299.509 367.216 298.179 362.164 298.179 Z" fill="#3f3d56" style="isolation:isolate"/>
  <path d="M 304.602 326.961 L 304.602 326.961 C 304.602 282.649 352.57 254.954 390.946 277.11 C 429.321 299.266 429.321 354.656 390.945 376.811 C 382.195 381.864 372.269 384.523 362.164 384.523 C 330.373 384.523 304.602 358.752 304.602 326.961 Z M 362.164 270.874 C 318.989 270.874 292.004 317.613 313.592 355.004 C 335.18 392.395 389.149 392.395 410.737 355.004 C 415.659 346.478 418.251 336.806 418.251 326.961 C 418.216 295.999 393.126 270.909 362.164 270.874 Z" fill="#ccc" style="isolation:isolate"/>
  <path d="M 249.991 326.961 C 249.991 240.61 343.469 186.64 418.251 229.816 C 493.033 272.991 493.033 380.93 418.251 424.106 C 401.198 433.951 381.855 439.134 362.164 439.134 C 300.242 439.064 250.061 388.883 249.991 326.961 Z M 362.164 216.263 C 276.949 216.263 223.69 308.511 266.298 382.309 C 308.905 456.108 415.423 456.108 458.031 382.309 C 467.747 365.481 472.861 346.392 472.861 326.961 C 472.792 265.853 423.272 216.333 362.164 216.263 Z" fill="#ccc" style="isolation:isolate"/>
  <circle cx="362.164" cy="326.223" r="14.022" fill="#03989e" style="isolation:isolate"/>
  <circle cx="326.003" cy="366.812" r="14.022" fill="#03989e" style="isolation:isolate"/>
  <circle cx="467.079" cy="360.908" r="14.022" fill="#03989e" style="isolation:isolate"/>
  <circle cx="362.164" cy="326.223" r="6.642" fill="#2f2e41"/>
  <circle cx="467.079" cy="360.908" r="6.642" fill="#2f2e41"/>
  <circle cx="326.003" cy="367.55" r="6.642" fill="#2f2e41"/>
  <circle cx="52.212" cy="251.687" r="6.642" fill="#03989e"/>
  <polygon points="361.795 252.056 70.292 252.056 70.292 250.58 363.272 250.58 363.272 326.591 361.795 326.591 361.795 252.056" fill="#2f2e41"/>
  <path d="M 33.024 251.687 C 33.024 236.916 49.014 227.684 61.806 235.07 C 74.597 242.455 74.597 260.918 61.806 268.303 C 58.889 269.988 55.58 270.874 52.212 270.874 C 41.615 270.874 33.024 262.284 33.024 251.687 Z M 52.212 233.975 C 38.577 233.975 30.056 248.735 36.873 260.542 C 43.69 272.35 60.733 272.35 67.55 260.542 C 69.105 257.85 69.923 254.796 69.923 251.687 C 69.912 241.909 61.989 233.986 52.212 233.975 Z" fill="#2f2e41"/>
  <circle cx="96.491" cy="442.824" r="6.642" fill="#03989e"/>
  <path d="M 77.303 442.824 L 77.303 442.824 C 77.303 428.053 93.293 418.822 106.085 426.207 C 118.876 433.592 118.876 452.055 106.085 459.441 C 103.168 461.125 99.859 462.011 96.491 462.011 C 85.894 462.011 77.303 453.421 77.303 442.824 Z M 96.491 425.112 C 82.856 425.112 74.335 439.872 81.152 451.68 C 87.969 463.487 105.012 463.487 111.829 451.68 C 113.384 448.987 114.202 445.933 114.202 442.824 C 114.191 433.047 106.268 425.123 96.491 425.112 Z" fill="#2f2e41"/>
  <circle cx="672.976" cy="282.682" r="6.642" fill="#03989e"/>
  <path d="M 653.788 282.682 C 653.788 267.911 669.778 258.68 682.57 266.065 C 695.361 273.45 695.361 291.913 682.57 299.299 C 679.653 300.983 676.344 301.869 672.976 301.869 C 662.379 301.869 653.788 293.279 653.788 282.682 Z M 672.976 264.97 C 663.199 264.981 655.276 272.905 655.264 282.682 L 655.264 282.682 C 655.264 296.316 670.024 304.838 681.832 298.02 C 693.64 291.203 693.64 274.16 681.832 267.343 C 679.139 265.789 676.085 264.97 672.976 264.97 Z" fill="#2f2e41"/>
  <polygon points="466.341 284.907 654.515 281.944 654.538 283.419 467.817 286.36 467.817 360.908 466.341 360.908 466.341 284.907" fill="#2f2e41"/>
  <polygon points="114.941 442.086 325.265 442.086 325.265 367.55 326.741 367.55 326.741 443.561 114.941 443.561 114.941 442.086" fill="#2f2e41"/>
  <rect x="11.623" y="286.372" width="81.178" height="5.166" fill="#ccc"/>
  <rect x="11.623" y="301.131" width="81.178" height="5.166" fill="#ccc"/>
  <rect x="11.623" y="315.891" width="81.178" height="5.166" fill="#ccc"/>
  <rect x="55.902" y="477.509" width="81.178" height="5.166" fill="#ccc"/>
  <rect x="55.902" y="492.269" width="81.178" height="5.166" fill="#ccc"/>
  <rect x="55.902" y="507.028" width="81.178" height="5.166" fill="#ccc"/>
  <rect x="632.387" y="318.105" width="81.178" height="5.166" fill="#ccc"/>
  <rect x="632.387" y="332.865" width="81.178" height="5.166" fill="#ccc"/>
  <rect x="632.387" y="347.624" width="81.178" height="5.166" fill="#ccc"/>
</svg>