<?xml version="1.0" encoding="utf-8"?>
<svg id="currentIllo" data-name="Layer 1" width="971.0518" height="628.38145" viewBox="0 0 971.0518 628.38145" class="injected-svg DownloadModal__ImageFile-sc-p17csy-5 iIfSkb grid_media" xmlns="http://www.w3.org/2000/svg">
  <path d="M 773.777 410.331 L 773.777 410.331 C 771.118 392.423 770.416 374.279 771.682 356.219 L 773.777 326.331 L 773.777 326.331 C 762.235 349.296 764.843 379.523 773.777 410.331 Z" fill="#cacaca"/>
  <path d="M 782.777 415.331 L 782.777 415.331 C 781.497 404.645 781.16 393.867 781.769 383.122 L 782.777 365.331 L 782.777 365.331 C 777.224 379.001 778.479 396.993 782.777 415.331 Z" fill="#cacaca"/>
  <path d="M 822.781 437.333 L 822.781 447.333 C 822.773 448.986 821.435 450.324 819.781 450.333 L 814.781 450.333 C 814.228 450.331 813.779 450.78 813.781 451.333 L 813.781 533.333 C 813.773 534.986 812.435 536.324 810.781 536.333 L 749.781 536.333 C 748.125 536.332 746.783 534.989 746.781 533.333 L 746.781 451.333 C 746.78 450.781 746.333 450.335 745.781 450.333 L 739.781 450.333 C 738.125 450.332 736.783 448.989 736.781 447.333 L 736.781 437.333 C 736.779 435.675 738.124 434.331 739.781 434.333 L 819.781 434.333 C 821.436 434.338 822.776 435.678 822.781 437.333 Z" fill="#f2f2f2"/>
  <rect x="746.871" y="452.433" width="67" height="3" fill="#e6e6e6"/>
  <path d="M 813.781 496.578 C 791.362 505.856 768.697 505.958 745.781 496.578 L 745.781 475.443 C 767.842 468.033 791.72 468.033 813.781 475.443 Z" fill="#e6e6e6"/>
  <circle cx="341.502" cy="389.457" r="9.06" fill="#03989e"/>
  <circle cx="522.709" cy="398.517" r="9.06" fill="#03989e"/>
  <path d="M 643.471 518.371 L 643.471 524.441 C 643.475 526.107 643.166 527.759 642.561 529.311 C 642.293 530.003 641.968 530.672 641.591 531.311 C 639.167 535.381 634.778 537.873 630.041 537.871 L 183.491 537.871 C 178.754 537.873 174.366 535.381 171.941 531.311 C 171.564 530.672 171.24 530.003 170.971 529.311 C 170.366 527.759 170.058 526.107 170.061 524.441 L 170.061 518.371 C 170.059 510.956 176.069 504.943 183.484 504.941 L 209.231 504.941 L 209.231 502.111 C 209.231 501.802 209.481 501.551 209.789 501.551 L 223.221 501.551 C 223.53 501.55 223.781 501.8 223.781 502.109 L 223.781 504.941 L 232.171 504.941 L 232.171 502.111 C 232.171 501.802 232.42 501.552 232.729 501.551 L 246.161 501.551 C 246.47 501.551 246.721 501.8 246.721 502.109 L 246.721 504.941 L 255.121 504.941 L 255.121 502.111 C 255.121 501.802 255.37 501.552 255.679 501.551 L 269.111 501.551 C 269.42 501.551 269.671 501.8 269.671 502.109 L 269.671 504.941 L 278.061 504.941 L 278.061 502.111 C 278.061 501.802 278.31 501.552 278.619 501.551 L 292.051 501.551 C 292.36 501.551 292.611 501.8 292.611 502.109 L 292.611 504.941 L 301.001 504.941 L 301.001 502.111 C 301.001 501.802 301.25 501.552 301.559 501.551 L 314.991 501.551 C 315.3 501.551 315.551 501.8 315.551 502.109 L 315.551 504.941 L 323.951 504.941 L 323.951 502.111 C 323.951 501.802 324.2 501.552 324.509 501.551 L 337.941 501.551 C 338.25 501.551 338.501 501.8 338.501 502.109 L 338.501 504.941 L 346.891 504.941 L 346.891 502.111 C 346.891 501.802 347.14 501.552 347.449 501.551 L 452.651 501.551 C 452.96 501.551 453.211 501.801 453.211 502.109 L 453.211 504.941 L 461.611 504.941 L 461.611 502.111 C 461.611 501.802 461.861 501.552 462.169 501.551 L 475.601 501.551 C 475.909 501.554 476.158 501.803 476.161 502.111 L 476.161 504.941 L 484.551 504.941 L 484.551 502.111 C 484.551 501.802 484.801 501.552 485.109 501.551 L 498.541 501.551 C 498.85 501.551 499.101 501.801 499.101 502.109 L 499.101 504.941 L 507.491 504.941 L 507.491 502.111 C 507.491 501.802 507.74 501.552 508.049 501.551 L 521.481 501.551 C 521.79 501.551 522.041 501.801 522.041 502.109 L 522.041 504.941 L 530.441 504.941 L 530.441 502.111 C 530.441 501.802 530.69 501.552 530.999 501.551 L 544.431 501.551 C 544.737 501.555 544.983 501.805 544.981 502.111 L 544.981 504.941 L 553.381 504.941 L 553.381 502.111 C 553.381 501.802 553.63 501.552 553.939 501.551 L 567.371 501.551 C 567.68 501.551 567.931 501.801 567.931 502.109 L 567.931 504.941 L 576.321 504.941 L 576.321 502.111 C 576.321 501.802 576.57 501.552 576.879 501.551 L 590.311 501.551 C 590.62 501.551 590.871 501.801 590.871 502.109 L 590.871 504.941 L 630.041 504.941 C 637.456 504.939 643.469 510.949 643.471 518.364 Z" fill="#3f3d56"/>
  <path d="M 607.514 262.737 L 198.47 262.737 C 192.252 262.737 187.211 267.777 187.211 273.995 L 187.211 501.907 C 187.211 508.125 192.252 513.166 198.47 513.166 L 607.514 513.166 C 613.732 513.166 618.772 508.125 618.772 501.907 L 618.772 273.995 C 618.772 267.777 613.732 262.737 607.514 262.737 Z" fill="#3f3d56"/>
  <circle cx="403.319" cy="342.306" r="25" fill="#03989e"/>
  <polygon points="416.535 252.636 542.741 125.433 602.324 125.433 602.324 123.433 541.906 123.433 541.613 123.73 415.113 251.23 416.535 252.636" fill="#3f3d56"/>
  <rect x="675.1" y="73.209" width="146.224" height="13.03" fill="#03989e"/>
  <path d="M 657.279 94.478 L 626.324 94.478 L 626.324 63.522 L 657.279 63.522 Z M 628.324 92.478 L 655.279 92.478 L 655.279 65.522 L 628.324 65.522 Z" fill="#3f3d56"/>
  <rect x="675.1" y="116.642" width="146.224" height="13.03" fill="#03989e"/>
  <path d="M 657.279 137.91 L 626.324 137.91 L 626.324 106.955 L 657.279 106.955 Z M 628.324 135.91 L 655.279 135.91 L 655.279 108.955 L 628.324 108.955 Z" fill="#3f3d56"/>
  <rect x="675.1" y="160.074" width="146.224" height="13.03" fill="#03989e"/>
  <path d="M 657.279 181.343 L 626.324 181.343 L 626.324 150.388 L 657.279 150.388 Z M 628.324 179.343 L 655.279 179.343 L 655.279 152.388 L 628.324 152.388 Z" fill="#3f3d56"/>
</svg>